<svg xmlns="http://www.w3.org/2000/svg" xmlns:xlink="http://www.w3.org/1999/xlink" viewBox="0 0 13.49 10.1"><defs><style>.cls-1{fill:none;}.cls-2{clip-path:url(#clip-path);}.cls-3{fill:#303c42;}.cls-4{fill:#546e7a;}.cls-5{fill:red;}.cls-6{opacity:0.1;isolation:isolate;}.cls-7{fill:#bddcf3;}.cls-8{fill:url(#Degradado_sin_nombre_2);}.cls-9{fill:#e5e5e4;}.cls-10{fill:url(#Degradado_sin_nombre_2-2);}</style><clipPath id="clip-path" transform="translate(-0.75 -2.45)"><rect class="cls-1" width="15" height="15"/></clipPath><linearGradient id="Degradado_sin_nombre_2" x1="-2046.46" y1="-5050.19" x2="-2046.43" y2="-5050.22" gradientTransform="matrix(21.33, 0, 0, -21.33, 43670.43, -107727.19)" gradientUnits="userSpaceOnUse"><stop offset="0" stop-opacity="0.1"/><stop offset="1" stop-opacity="0"/></linearGradient><linearGradient id="Degradado_sin_nombre_2-2" x1="-2046.82" y1="-5050.02" x2="-2046.62" y2="-5050.22" xlink:href="#Degradado_sin_nombre_2"/></defs><title>cancelled orders</title><g id="Layer_2" data-name="Layer 2"><g id="Layer_1-2" data-name="Layer 1"><g class="cls-2"><path class="cls-3" d="M14.16,7.58,11.91,5.34a.27.27,0,0,0-.19-.08h-2V4.41a.29.29,0,0,0-.28-.28H3.85A.85.85,0,0,0,3,5v5.34a1.13,1.13,0,0,0,1.13,1.12h0a1.4,1.4,0,0,0,2.75,0h3.43a1.4,1.4,0,0,0,2.75,0H14a.29.29,0,0,0,.29-.28V7.78A.27.27,0,0,0,14.16,7.58Z" transform="translate(-0.75 -2.45)"/><circle class="cls-4" cx="4.78" cy="8.7" r="0.84"/><circle class="cls-3" cx="4.78" cy="8.7" r="0.28"/><path class="cls-5" d="M5.53,9.74a1.4,1.4,0,0,0-1.37,1.13h0a.57.57,0,0,1-.56-.56V5a.28.28,0,0,1,.28-.28H9.19v6.18H6.91A1.42,1.42,0,0,0,5.53,9.74Z" transform="translate(-0.75 -2.45)"/><circle class="cls-4" cx="10.96" cy="8.7" r="0.84"/><path class="cls-5" d="M13.68,10.87h-.59a1.4,1.4,0,0,0-2.75,0H9.75v-5H11.6L13.68,7.9Z" transform="translate(-0.75 -2.45)"/><rect class="cls-6" x="8.99" y="3.37" width="0.3" height="5.05"/><path class="cls-3" d="M12.84,8.62H10.59a.28.28,0,0,1-.28-.28V6.66a.28.28,0,0,1,.28-.28h.66a.3.3,0,0,1,.2.08L13,8.05a.28.28,0,0,1,.08.2v.09A.27.27,0,0,1,12.84,8.62Z" transform="translate(-0.75 -2.45)"/><polygon class="cls-7" points="10.12 5.61 11.5 5.61 10.38 4.49 10.12 4.49 10.12 5.61"/><circle class="cls-3" cx="10.96" cy="8.7" r="0.28"/><path class="cls-8" d="M13.42,10.87l-.68-.68h0a1.43,1.43,0,0,1,.35.68Z" transform="translate(-0.75 -2.45)"/><ellipse class="cls-3" cx="3.09" cy="3.09" rx="3.09" ry="3.09"/><ellipse class="cls-9" cx="3.09" cy="3.09" rx="2.53" ry="2.53"/><path class="cls-6" d="M1.6,5.82A2.53,2.53,0,0,1,4.13,3.29a2.5,2.5,0,0,1,1.63.62A2.48,2.48,0,0,0,3.85,3,2.52,2.52,0,0,0,2.21,7.45,2.49,2.49,0,0,1,1.6,5.82Z" transform="translate(-0.75 -2.45)"/><path class="cls-10" d="M7.16,4.69H6.82a3.35,3.35,0,0,1,.12.85A3.09,3.09,0,0,1,3.85,8.62H3.57v1l.78.78a1.4,1.4,0,0,1,2.56.47H9.19V6.72Z" transform="translate(-0.75 -2.45)"/><rect class="cls-5" x="3.48" y="3.71" width="0.99" height="3.9" rx="0.49" ry="0.49" transform="translate(4.41 -3.6) rotate(45)"/><rect class="cls-5" x="3.48" y="3.71" width="0.99" height="3.9" rx="0.49" ry="0.49" transform="translate(-3.59 2.01) rotate(-45)"/></g></g></g></svg>