<svg xmlns="http://www.w3.org/2000/svg" xmlns:xlink="http://www.w3.org/1999/xlink" viewBox="0 0 8.18 11.07"><defs><style>.cls-1{fill:none;}.cls-2{clip-path:url(#clip-path);}.cls-3{clip-path:url(#clip-path-2);}.cls-4{fill:#333;}</style><clipPath id="clip-path" transform="translate(-4.92 -3.39)"><rect class="cls-1" width="18" height="18"/></clipPath><clipPath id="clip-path-2" transform="translate(-4.92 -3.39)"><rect class="cls-1" x="4.92" y="3.39" width="8.16" height="11.21"/></clipPath></defs><title>First shipping date</title><g id="Layer_2" data-name="Layer 2"><g id="Layer_1-2" data-name="Layer 1"><g class="cls-2"><g class="cls-3"><path class="cls-4" d="M11.17,3.39H5.6a.68.68,0,0,0-.68.68v9.72a.67.67,0,0,0,.68.67h6.82a.67.67,0,0,0,.68-.67V5.49Zm.16,1,.85.92h-.85Zm1.2,9.38a.1.1,0,0,1-.11.1H5.6a.1.1,0,0,1-.11-.1V4.07A.11.11,0,0,1,5.6,4h5.16V5.61a.29.29,0,0,0,.29.29h1.48Zm-6-7.36h4.84a.21.21,0,1,1,0,.42H6.5a.21.21,0,1,1,0-.42Zm5.05,1.64a.21.21,0,0,1-.21.22H6.5a.22.22,0,1,1,0-.43h4.84a.21.21,0,0,1,.21.21Zm0,1.39a.21.21,0,0,1-.21.22H6.5a.22.22,0,0,1-.22-.22.21.21,0,0,1,.22-.21h4.84a.21.21,0,0,1,.21.21Zm0,1.41a.21.21,0,0,1-.21.22H6.5a.22.22,0,1,1,0-.43h4.84a.21.21,0,0,1,.21.21Z" transform="translate(-4.92 -3.39)"/></g></g></g></g></svg>