<svg xmlns="http://www.w3.org/2000/svg" xmlns:xlink="http://www.w3.org/1999/xlink" viewBox="0 0 10.21 8.74"><defs><style>.cls-1{fill:none;}.cls-2{clip-path:url(#clip-path);}.cls-3{fill:#4d4d4d;}</style><clipPath id="clip-path" transform="translate(-3.39 -4.13)"><rect class="cls-1" width="17" height="17"/></clipPath></defs><title>new link</title><g id="Layer_2" data-name="Layer 2"><g id="Layer_1-2" data-name="Layer 1"><g class="cls-2"><path class="cls-3" d="M11.24,9.23h-.37a.17.17,0,0,0-.18.18v1.82a.85.85,0,0,1-.27.64.87.87,0,0,1-.64.27H5a.87.87,0,0,1-.64-.27.85.85,0,0,1-.27-.64V6.5A.9.9,0,0,1,5,5.59h4a.21.21,0,0,0,.13,0,.22.22,0,0,0,.05-.14V5a.19.19,0,0,0-.05-.13.21.21,0,0,0-.13,0H5a1.6,1.6,0,0,0-1.16.48A1.59,1.59,0,0,0,3.39,6.5v4.73a1.59,1.59,0,0,0,.48,1.16A1.6,1.6,0,0,0,5,12.87H9.78a1.64,1.64,0,0,0,1.64-1.64V9.41a.19.19,0,0,0-.05-.13.21.21,0,0,0-.13,0Z" transform="translate(-3.39 -4.13)"/><path class="cls-3" d="M13.5,4.24a.36.36,0,0,0-.26-.11H10.32a.34.34,0,0,0-.25.11.32.32,0,0,0-.11.25.33.33,0,0,0,.11.26l1,1L7.35,9.46a.21.21,0,0,0,0,.13.19.19,0,0,0,0,.13l.65.65a.2.2,0,0,0,.14.06.19.19,0,0,0,.13-.06L12,6.66l1,1a.31.31,0,0,0,.25.11.33.33,0,0,0,.26-.11.34.34,0,0,0,.11-.25V4.49a.36.36,0,0,0-.11-.25Z" transform="translate(-3.39 -4.13)"/></g></g></g></svg>