<svg xmlns="http://www.w3.org/2000/svg" xmlns:xlink="http://www.w3.org/1999/xlink" viewBox="0 0 11.32 10.9"><defs><style>.cls-1{fill:none;}.cls-2{clip-path:url(#clip-path);}.cls-3{clip-path:url(#clip-path-2);}.cls-4{fill:#8c6239;}</style><clipPath id="clip-path" transform="translate(-3.34 -3.54)"><rect class="cls-1" width="18" height="18"/></clipPath><clipPath id="clip-path-2" transform="translate(-3.34 -3.54)"><rect class="cls-1" x="3.34" y="3.54" width="11.32" height="10.91"/></clipPath></defs><title>production MOQ</title><g id="Layer_2" data-name="Layer 2"><g id="Layer_1-2" data-name="Layer 1"><g class="cls-2"><g class="cls-3"><path class="cls-4" d="M12.26,4.87,6.75,7.46V9.12l-1-.42V7L11.3,4.45,9.45,3.63a1.27,1.27,0,0,0-.9,0L4,5.65a1.2,1.2,0,0,0-.66,1v4.75a1.21,1.21,0,0,0,.67,1l4.54,1.94a1.3,1.3,0,0,0,.87,0L14,12.43a1.23,1.23,0,0,0,.67-1V6.66a1.22,1.22,0,0,0-.66-1Zm1.37,3.8-.27.13v1.87a.27.27,0,0,1-.16.22l-.4.17c-.09,0-.16,0-.16-.08V9.13l-.26.12c-.12.06-.2,0-.14-.16l.62-1.3c.06-.13.22-.2.28-.13l.63.72c.07.07,0,.23-.14.29Zm-2.6,3a.27.27,0,0,1-.15.21l-.37.16c-.08,0-.15,0-.15-.08l0-1.77-.24.11c-.11,0-.19,0-.13-.15l.56-1.24c.06-.12.2-.19.26-.13l.6.7c.06.07,0,.23-.13.28L11,9.89Zm3-.51a.15.15,0,0,1-.08.11L9.76,13.05s-.07,0-.07,0v-.2a.12.12,0,0,1,.07-.1L14,10.91s.08,0,.08,0Z" transform="translate(-3.34 -3.54)"/></g></g></g></g></svg>