<svg xmlns="http://www.w3.org/2000/svg" xmlns:xlink="http://www.w3.org/1999/xlink" viewBox="0 0 16.46 9.53"><defs><style>.cls-1{fill:none;}.cls-2{clip-path:url(#clip-path);}.cls-3{fill:#f6bb42;}.cls-4{fill:#dca746;}.cls-5{fill:#ffce54;}.cls-6{fill:#ccd1d9;}.cls-7{fill:#aab2bc;}.cls-8{fill:#ed5565;}.cls-9{fill:#656d78;}.cls-10{fill:#434a54;}.cls-11{fill:#da4453;}</style><clipPath id="clip-path" transform="translate(-0.77 -4.24)"><rect class="cls-1" width="18" height="18"/></clipPath></defs><title>shipping info</title><g id="Layer_2" data-name="Layer 2"><g id="Layer_1-2" data-name="Layer 1"><g class="cls-2"><path class="cls-3" d="M7.27,5.28h8.31a.27.27,0,0,1,.22.11l-.69-1h0l0,0h0v0H7.76l0,0h0l-.69,1A.27.27,0,0,1,7.27,5.28Z" transform="translate(-0.77 -4.24)"/><path class="cls-4" d="M15.11,4.35h0l0,0h0v0H14l0,0h0l0,0h0l.61.93h.9a.27.27,0,0,1,.22.11Z" transform="translate(-0.77 -4.24)"/><path class="cls-5" d="M11.86,11.51v-.43a.26.26,0,0,1,.26-.26h3.72V5.54a.25.25,0,0,0-.26-.26H7.27A.25.25,0,0,0,7,5.54v6Z" transform="translate(-0.77 -4.24)"/><path class="cls-3" d="M15.58,5.28h-1a.25.25,0,0,1,.26.26v5.28h1V5.54A.25.25,0,0,0,15.58,5.28Z" transform="translate(-0.77 -4.24)"/><path d="M5.54,12a.26.26,0,0,1-.26-.26V7.61a.26.26,0,0,1,.26-.26.26.26,0,0,1,.26.26v4.16A.26.26,0,0,1,5.54,12Z" transform="translate(-0.77 -4.24)"/><path class="cls-6" d="M5.54,7.35H3.47a.26.26,0,0,0-.26.26V8.74H5.8V7.61A.26.26,0,0,0,5.54,7.35Z" transform="translate(-0.77 -4.24)"/><path class="cls-7" d="M4.76,7.35V5.54a.26.26,0,0,0-.26-.26.25.25,0,0,0-.26.26V7.35Z" transform="translate(-0.77 -4.24)"/><rect class="cls-7" x="2.44" y="4.5" width="2.58" height="1.39"/><rect class="cls-6" x="2.44" y="5.89" width="2.58" height="1.39"/><path class="cls-8" d="M12.38,6.92V5.28H10.47V6.92a.26.26,0,0,0,.26.26h1.39A.26.26,0,0,0,12.38,6.92Z" transform="translate(-0.77 -4.24)"/><path class="cls-9" d="M8.65,10.82H8a.26.26,0,0,1,0-.52h.69a.26.26,0,0,1,0,.52Z" transform="translate(-0.77 -4.24)"/><path class="cls-9" d="M17.23,11.08v0h0v0h0v0h0v0H12.12a.26.26,0,0,0-.26.26v.43H1a.26.26,0,0,0-.26.26,2.4,2.4,0,0,0,1.53,2l.12,0H16.28a.27.27,0,0,0,.25-.18l.69-2.43h0v0h0Z" transform="translate(-0.77 -4.24)"/><path class="cls-10" d="M17.23,11.08v0h0v0h0v0h0v0h-1v0h0v0h0v0h0v0h0v0h0l-.69,2.43a.27.27,0,0,1-.25.18h1a.27.27,0,0,0,.25-.18l.69-2.43h0v0h0Z" transform="translate(-0.77 -4.24)"/><polygon class="cls-11" points="11.26 0 10.05 0 9.7 1.04 11.61 1.04 11.26 0"/></g></g></g></svg>