<svg xmlns="http://www.w3.org/2000/svg" xmlns:xlink="http://www.w3.org/1999/xlink" viewBox="0 0 24.28 18.18"><defs><style>.cls-1{fill:none;}.cls-2{clip-path:url(#clip-path);}.cls-3{fill:#303c42;}.cls-4{fill:#546e7a;}.cls-5{fill:#f69220;}.cls-6{opacity:0.1;isolation:isolate;}.cls-7{fill:#bddcf3;}.cls-8{fill:#e5e5e4;}.cls-9{fill:url(#Degradado_sin_nombre_2);}</style><clipPath id="clip-path" transform="translate(-1.36 -4.41)"><rect class="cls-1" width="27" height="27"/></clipPath><linearGradient id="Degradado_sin_nombre_2" x1="4904.11" y1="5589" x2="4904.47" y2="5588.64" gradientTransform="matrix(21.33, 0, 0, -21.33, -104612.23, 119244.01)" gradientUnits="userSpaceOnUse"><stop offset="0" stop-opacity="0.1"/><stop offset="1" stop-opacity="0"/></linearGradient></defs><title>truck_process</title><g id="Layer_2" data-name="Layer 2"><g id="Layer_1-2" data-name="Layer 1"><g class="cls-2"><path class="cls-3" d="M25.49,13.65l-4-4a.47.47,0,0,0-.35-.15H17.55V8A.51.51,0,0,0,17,7.44H6.93A1.52,1.52,0,0,0,5.41,9v9.59a2,2,0,0,0,2,2h.05a2.53,2.53,0,0,0,5,0h6.17a2.53,2.53,0,0,0,4.95,0h1.57a.51.51,0,0,0,.51-.51V14A.51.51,0,0,0,25.49,13.65Z" transform="translate(-1.36 -4.41)"/><circle class="cls-4" cx="8.6" cy="15.65" r="1.52"/><circle class="cls-3" cx="8.6" cy="15.65" r="0.51"/><path class="cls-5" d="M10,17.54a2.54,2.54,0,0,0-2.48,2H7.43a1,1,0,0,1-1-1V9a.51.51,0,0,1,.51-.51h9.6V19.56H12.44A2.54,2.54,0,0,0,10,17.54Z" transform="translate(-1.36 -4.41)"/><circle class="cls-4" cx="19.72" cy="15.65" r="1.52"/><path class="cls-5" d="M24.63,19.56H23.56a2.53,2.53,0,0,0-4.95,0H17.55V10.47h3.33l3.75,3.74Z" transform="translate(-1.36 -4.41)"/><rect class="cls-6" x="16.18" y="6.06" width="0.54" height="9.09"/><path class="cls-3" d="M23.11,15.52H19.06a.5.5,0,0,1-.5-.51V12a.5.5,0,0,1,.5-.51h1.19a.51.51,0,0,1,.36.15l2.86,2.85a.54.54,0,0,1,.14.36V15A.5.5,0,0,1,23.11,15.52Z" transform="translate(-1.36 -4.41)"/><polygon class="cls-7" points="18.21 10.1 20.7 10.1 18.68 8.08 18.21 8.08 18.21 10.1"/><circle class="cls-3" cx="19.72" cy="15.65" r="0.51"/><ellipse class="cls-3" cx="5.56" cy="5.55" rx="5.56" ry="5.55"/><ellipse class="cls-8" cx="5.56" cy="5.55" rx="4.55" ry="4.54"/><path class="cls-6" d="M2.88,10.47A4.55,4.55,0,0,1,7.43,5.93,4.48,4.48,0,0,1,10.37,7,4.53,4.53,0,1,0,4,13.41,4.53,4.53,0,0,1,2.88,10.47Z" transform="translate(-1.36 -4.41)"/><path class="cls-5" d="M8.09,11.84a.47.47,0,0,0,.35.15.51.51,0,0,0,.36-.87L7.43,9.76V6.94a.51.51,0,1,0-1,0v3a.47.47,0,0,0,.15.35Z" transform="translate(-1.36 -4.41)"/><path class="cls-9" d="M12.89,8.45h-.62A5.42,5.42,0,0,1,12.49,10a5.57,5.57,0,0,1-5.56,5.55,4.24,4.24,0,0,1-.51,0v1.82l1.41,1.41A2.51,2.51,0,0,1,10,17.54a2.54,2.54,0,0,1,2.48,2h4.09V12.09Z" transform="translate(-1.36 -4.41)"/></g></g></g></svg>