<svg xmlns="http://www.w3.org/2000/svg" xmlns:xlink="http://www.w3.org/1999/xlink" viewBox="0 0 24.28 18.18"><defs><style>.cls-1{fill:none;}.cls-2{clip-path:url(#clip-path);}.cls-3{fill:#303c42;}.cls-4{fill:#546e7a;}.cls-5{fill:#3d82c3;}.cls-6{opacity:0.1;isolation:isolate;}.cls-7{fill:#bddcf3;}.cls-8{fill:url(#Degradado_sin_nombre_2);}.cls-9{fill:#e5e5e4;}.cls-10{fill:url(#Degradado_sin_nombre_2-2);}.cls-11{clip-path:url(#clip-path-2);}.cls-12{fill:#019147;}</style><clipPath id="clip-path" transform="translate(-1.36 -4.41)"><rect class="cls-1" width="27" height="27"/></clipPath><linearGradient id="Degradado_sin_nombre_2" x1="4904.77" y1="5524.16" x2="4904.82" y2="5524.1" gradientTransform="matrix(21.33, 0, 0, -21.33, -104612.23, 117867.27)" gradientUnits="userSpaceOnUse"><stop offset="0" stop-opacity="0.1"/><stop offset="1" stop-opacity="0"/></linearGradient><linearGradient id="Degradado_sin_nombre_2-2" x1="4904.11" y1="5524.47" x2="4904.47" y2="5524.11" xlink:href="#Degradado_sin_nombre_2"/><clipPath id="clip-path-2" transform="translate(-1.36 -4.41)"><rect class="cls-1" x="3.91" y="7.08" width="6.48" height="5.56"/></clipPath></defs><title>truck_delivered</title><g id="Layer_2" data-name="Layer 2"><g id="Layer_1-2" data-name="Layer 1"><g class="cls-2"><path class="cls-3" d="M25.49,13.65l-4-4a.47.47,0,0,0-.35-.15H17.55V8A.51.51,0,0,0,17,7.44H6.92A1.52,1.52,0,0,0,5.41,9v9.59a2,2,0,0,0,2,2h.05a2.53,2.53,0,0,0,5,0h6.17a2.53,2.53,0,0,0,5,0h1.56a.51.51,0,0,0,.51-.51V14A.47.47,0,0,0,25.49,13.65Z" transform="translate(-1.36 -4.41)"/><circle class="cls-4" cx="8.6" cy="15.65" r="1.52"/><circle class="cls-3" cx="8.6" cy="15.65" r="0.51"/><path class="cls-5" d="M10,17.54a2.54,2.54,0,0,0-2.48,2H7.43a1,1,0,0,1-1-1V9a.5.5,0,0,1,.5-.51h9.61V19.56H12.44A2.54,2.54,0,0,0,10,17.54Z" transform="translate(-1.36 -4.41)"/><circle class="cls-4" cx="19.73" cy="15.65" r="1.52"/><path class="cls-5" d="M24.63,19.56H23.57a2.53,2.53,0,0,0-5,0H17.55V10.47h3.33l3.75,3.74Z" transform="translate(-1.36 -4.41)"/><rect class="cls-6" x="16.19" y="6.06" width="0.54" height="9.09"/><path class="cls-3" d="M23.11,15.52H19.06a.5.5,0,0,1-.5-.51V12a.5.5,0,0,1,.5-.51h1.19a.51.51,0,0,1,.36.15l2.86,2.85a.55.55,0,0,1,.15.36V15A.51.51,0,0,1,23.11,15.52Z" transform="translate(-1.36 -4.41)"/><polygon class="cls-7" points="18.21 10.1 20.7 10.1 18.68 8.08 18.21 8.08 18.21 10.1"/><circle class="cls-3" cx="19.73" cy="15.65" r="0.51"/><path class="cls-8" d="M24.15,19.56l-1.22-1.22h0a2.61,2.61,0,0,1,.64,1.22Z" transform="translate(-1.36 -4.41)"/><ellipse class="cls-3" cx="5.56" cy="5.55" rx="5.56" ry="5.55"/><ellipse class="cls-9" cx="5.56" cy="5.55" rx="4.55" ry="4.54"/><path class="cls-6" d="M2.88,10.47A4.53,4.53,0,0,1,10.37,7,4.53,4.53,0,1,0,4,13.41,4.52,4.52,0,0,1,2.88,10.47Z" transform="translate(-1.36 -4.41)"/><path class="cls-10" d="M12.89,8.45h-.62A5.42,5.42,0,0,1,12.49,10a5.57,5.57,0,0,1-5.57,5.55,4.19,4.19,0,0,1-.5,0v1.82l1.41,1.41A2.5,2.5,0,0,1,10,17.54a2.54,2.54,0,0,1,2.48,2h4.09V12.09Z" transform="translate(-1.36 -4.41)"/><g class="cls-11"><path class="cls-12" d="M10.13,7.39,10,7.24a.72.72,0,0,0-1,.07l-2.89,3.2-.88-.75a.7.7,0,0,0-1,.06L4.09,10a.68.68,0,0,0-.18.5.71.71,0,0,0,.23.49l1.6,1.46a.69.69,0,0,0,.51.19.74.74,0,0,0,.5-.24l3.46-4a.68.68,0,0,0,.16-.51.7.7,0,0,0-.24-.48Z" transform="translate(-1.36 -4.41)"/></g></g></g></g></svg>